<svg width="145" height="84" viewBox="0 0 145 84" fill="none" xmlns="http://www.w3.org/2000/svg">
<g clip-path="url(#clip0_77_205)">
<path d="M22.0722 47.3323L14.8045 68.3044H7.2957L0 47.3323H6.2807L11.0641 62.4757L15.8195 47.3323H22.0722Z" fill="#1062C4"/>
<path d="M29.7604 52.0008V55.4199H36.4897V59.8541H29.7604V63.6302H37.3869V68.2988H23.9003V47.3267H37.3869V51.9952H29.7604V52.0008Z" fill="#1062C4"/>
<path d="M50.9633 68.3044L46.7743 60.5681H46.1463V68.3044H40.2861V47.3323H49.5277C51.2213 47.3323 52.6569 47.6279 53.8345 48.208C55.0121 48.7936 55.8982 49.5968 56.4982 50.6175C57.0982 51.6383 57.3954 52.7873 57.3954 54.0534C57.3954 55.4813 57.0029 56.7363 56.2122 57.8183C55.4271 58.9004 54.2719 59.6701 52.7578 60.1219L57.5132 68.3044H50.9633ZM46.1519 56.5857H49.0511C49.8474 56.5857 50.4474 56.396 50.8456 56.0223C51.2437 55.643 51.4456 55.102 51.4456 54.3881C51.4456 53.7132 51.2381 53.1833 50.8343 52.7984C50.425 52.4136 49.8306 52.2183 49.0567 52.2183H46.1575V56.5912L46.1519 56.5857Z" fill="#1062C4"/>
<path d="M75.9403 47.3323V51.9729H70.3157V68.3044H64.4556V51.9729H58.8927V47.3323H75.9403Z" fill="#1062C4"/>
<path d="M83.9819 47.3323V68.3044H78.1218V47.3323H83.9819Z" fill="#1062C4"/>
<path d="M87.9186 52.2575C88.7878 50.6399 90.0159 49.3794 91.6141 48.4814C93.2067 47.5778 95.046 47.126 97.1153 47.126C99.7453 47.126 101.96 47.8232 103.755 49.2232C105.549 50.6232 106.705 52.5196 107.226 54.918H100.917C100.536 54.126 100.015 53.518 99.3472 53.1053C98.6799 52.6925 97.906 52.4806 97.0312 52.4806C95.6741 52.4806 94.5918 52.9602 93.7843 53.9252C92.9768 54.8901 92.573 56.173 92.573 57.7794C92.573 59.3857 92.9768 60.7021 93.7843 61.6614C94.5918 62.6264 95.6741 63.1061 97.0312 63.1061C97.906 63.1061 98.6799 62.8997 99.3472 62.4814C100.015 62.063 100.536 61.4606 100.917 60.6686H107.226C106.705 63.067 105.549 64.969 103.755 66.3634C101.96 67.7634 99.7453 68.4606 97.1153 68.4606C95.0404 68.4606 93.2067 68.0088 91.6141 67.1053C90.0215 66.2017 88.7878 64.9411 87.9186 63.3292C87.0493 61.7116 86.6176 59.8654 86.6176 57.7794C86.6176 55.6933 87.0493 53.875 87.9186 52.263V52.2575Z" fill="#1062C4"/>
<path d="M123.343 64.8853H115.868L114.729 68.3044H108.566L116.255 47.3323H123.012L130.667 68.3044H124.476L123.337 64.8853H123.343ZM121.879 60.4231L119.608 53.6406L117.365 60.4231H121.879Z" fill="#1062C4"/>
<path d="M138.45 63.8422H145V68.3044H132.59V47.3323H138.45V63.8422Z" fill="#1062C4"/>
<path d="M49.6736 74.1553V75.4605H47.066V83.9051H45.4566V75.4605H42.8322V74.1553H49.6736Z" fill="#1062C4"/>
<path d="M54.3168 75.4439V78.3052H57.7039V79.6104H54.3168V82.6001H58.1245V83.9052H52.7074V74.1443H58.1245V75.4495H54.3168V75.4439Z" fill="#1062C4"/>
<path d="M69.5587 83.9052H67.9493L63.1154 76.6264V83.9052H61.506V74.1443H63.1154L67.9493 81.412V74.1443H69.5587V83.9052Z" fill="#1062C4"/>
<path d="M79.0303 74.7521C79.8154 75.1481 80.421 75.7226 80.8472 76.4644C81.2734 77.2063 81.4865 78.0764 81.4865 79.0692C81.4865 80.062 81.2734 80.921 80.8472 81.6517C80.421 82.3824 79.8154 82.9401 79.0303 83.325C78.2452 83.7154 77.3311 83.9051 76.2881 83.9051H73.0861V74.1553H76.2881C77.3311 74.1553 78.2452 74.3561 79.0303 74.7521ZM78.9237 81.674C79.535 81.0549 79.8378 80.1848 79.8378 79.0636C79.8378 77.9425 79.535 77.0501 78.9237 76.4142C78.3125 75.7784 77.4321 75.4605 76.2881 75.4605H74.6955V82.5999H76.2881C77.4377 82.5999 78.3125 82.2931 78.9237 81.674Z" fill="#1062C4"/>
<path d="M90.4029 81.914H86.298L85.5914 83.9052H83.9147L87.4251 74.1443H89.2869L92.7974 83.9052H91.1038L90.3972 81.914H90.4029ZM89.9486 80.6088L88.356 76.0797L86.7466 80.6088H89.9486Z" fill="#1062C4"/>
<path d="M97.1826 83.6598C96.6554 83.4311 96.2405 83.1076 95.9433 82.6837C95.6404 82.2653 95.4946 81.7745 95.4946 81.2112H97.2162C97.2555 81.6295 97.4181 81.9809 97.7153 82.2486C98.0125 82.5219 98.4275 82.6558 98.9658 82.6558C99.5042 82.6558 99.9528 82.5219 100.261 82.2542C100.57 81.9865 100.727 81.6462 100.727 81.2223C100.727 80.8932 100.631 80.6311 100.435 80.4247C100.244 80.2183 100.003 80.0622 99.7173 79.9506C99.4313 79.839 99.0331 79.7163 98.5284 79.5881C97.8891 79.4207 97.3676 79.2478 96.9695 79.0749C96.5713 78.902 96.2293 78.6343 95.9489 78.2661C95.6685 77.898 95.5283 77.4128 95.5283 76.8048C95.5283 76.2414 95.6685 75.7506 95.9489 75.3323C96.2293 74.914 96.6274 74.5904 97.1321 74.3618C97.6368 74.1331 98.2256 74.0271 98.8929 74.0271C99.8407 74.0271 100.62 74.2614 101.226 74.7355C101.831 75.2096 102.168 75.8566 102.235 76.6765H100.458C100.429 76.3195 100.261 76.0183 99.9472 75.7673C99.6388 75.5163 99.2294 75.3881 98.7191 75.3881C98.2593 75.3881 97.8835 75.5052 97.5919 75.7394C97.3003 75.9737 97.1545 76.3084 97.1545 76.749C97.1545 77.0502 97.2443 77.2956 97.4293 77.4853C97.6144 77.6749 97.8443 77.8311 98.1303 77.9426C98.4163 78.0542 98.7976 78.1769 99.2855 78.3052C99.936 78.4837 100.463 78.6622 100.872 78.8406C101.282 79.0191 101.63 79.2924 101.916 79.6606C102.202 80.0287 102.347 80.5251 102.347 81.1387C102.347 81.6351 102.213 82.1036 101.944 82.5387C101.674 82.9737 101.287 83.3307 100.772 83.5984C100.261 83.8661 99.6556 84 98.9602 84C98.3041 84 97.7097 83.8829 97.1826 83.6542V83.6598Z" fill="#1062C4"/>
<path d="M32.6708 37.4766H12.1016V32.9865H30.7978L51.8438 12.0535L73.944 34.0351L70.7476 37.2088L51.8438 18.4065L32.6708 37.4766Z" fill="#EFB511"/>
<path d="M32.9007 38.0344H11.5408V32.4232H30.5623L51.8382 11.2615L74.7291 34.0296L70.742 37.9953L51.8382 19.1929L32.8951 38.0344H32.9007ZM12.6623 36.9188H32.4353L51.8382 17.62L70.742 36.4224L73.1421 34.0352L51.8382 12.8455L31.0278 33.5443H12.6623V36.9244V36.9188Z" fill="#EFB511"/>
<path d="M133.375 37.4764H112.811L82.1762 7.13379L62.9415 26.2653L59.7451 23.0916L82.1706 0.786377L114.673 32.9864H133.375V37.4764Z" fill="#EFB511"/>
<path d="M133.936 38.0343H112.582L82.1818 7.9259L62.9472 27.0574L58.9601 23.0916L82.1706 0L82.5688 0.390438L114.909 32.4231H133.936V38.0343ZM113.041 36.9187H132.814V33.5386H114.443L82.1706 1.57849L60.5415 23.0916L62.9416 25.4789L82.1762 6.34741L82.5744 6.73785L113.041 36.9187Z" fill="#EFB511"/>
</g>
<defs>
<clipPath id="clip0_77_205">
<rect width="145" height="84" fill="white"/>
</clipPath>
</defs>
</svg>
