<svg width="130" height="130" viewBox="0 0 130 130" fill="none" xmlns="http://www.w3.org/2000/svg">
<path d="M121.875 9.25124L119.252 30.0241C112.734 29.5235 107.805 30.8583 104.467 34.0285C101.128 37.1986 98.9819 41.5367 98.028 47.0428C97.0742 52.5488 96.8357 58.6388 97.3126 65.3128H121.875V121.875H75.1349V57.8046C75.1349 40.2853 79.1889 27.1042 87.2969 18.2611C95.5639 9.25124 107.09 6.24794 121.875 9.25124ZM54.865 9.25124L52.2419 30.0241C45.7237 29.5235 40.7953 30.8583 37.4568 34.0285C34.1182 37.1986 31.972 41.5367 31.0181 47.0428C30.0642 52.5488 29.8257 58.6388 30.3027 65.3128H54.865V121.875H8.125V57.8046C8.125 40.2853 12.179 27.1042 20.287 18.2611C28.5539 9.25124 40.0799 6.24794 54.865 9.25124Z" fill="#1F2023" fill-opacity="0.1"/>
</svg>
